<?xml version="1.0" encoding="UTF-8"?>
<svg xmlns="http://www.w3.org/2000/svg" xmlns:xlink="http://www.w3.org/1999/xlink" width="720pt" height="576pt" viewBox="0 0 720 576" version="1.1">
<g id="surface704">
<rect x="0" y="0" width="720" height="576" style="fill:rgb(100%,100%,100%);fill-opacity:1;stroke:none;"/>
<path style=" stroke:none;fill-rule:nonzero;fill:rgb(42.352941%,61.176471%,80%);fill-opacity:1;" d="M 0 576 L 72 576 L 72 504 L 0 504 Z M 0 576 "/>
<path style=" stroke:none;fill-rule:nonzero;fill:rgb(19.215686%,34.901961%,60.784314%);fill-opacity:1;" d="M 0 504 L 72 504 L 72 432 L 0 432 Z M 0 504 "/>
<path style=" stroke:none;fill-rule:nonzero;fill:rgb(25.490196%,48.627451%,74.117647%);fill-opacity:1;" d="M 0 432 L 72 432 L 72 360 L 0 360 Z M 0 432 "/>
<path style=" stroke:none;fill-rule:nonzero;fill:rgb(57.647059%,72.941176%,85.882353%);fill-opacity:1;" d="M 0 360 L 72 360 L 72 288 L 0 288 Z M 0 360 "/>
<path style=" stroke:none;fill-rule:nonzero;fill:rgb(34.117647%,54.901961%,76.862745%);fill-opacity:1;" d="M 0 288 L 72 288 L 72 216 L 0 216 Z M 0 288 "/>
<path style=" stroke:none;fill-rule:nonzero;fill:rgb(42.352941%,61.176471%,80%);fill-opacity:1;" d="M 0 216 L 72 216 L 72 144 L 0 144 Z M 0 216 "/>
<path style=" stroke:none;fill-rule:nonzero;fill:rgb(49.803922%,67.058824%,82.745098%);fill-opacity:1;" d="M 0 144 L 72 144 L 72 72 L 0 72 Z M 0 144 "/>
<path style=" stroke:none;fill-rule:nonzero;fill:rgb(19.607843%,41.960784%,69.411765%);fill-opacity:1;" d="M 0 72 L 72 72 L 72 0 L 0 0 Z M 0 72 "/>
<path style=" stroke:none;fill-rule:nonzero;fill:rgb(91.372549%,95.686275%,98.039216%);fill-opacity:1;" d="M 72 576 L 144 576 L 144 504 L 72 504 Z M 72 576 "/>
<path style=" stroke:none;fill-rule:nonzero;fill:rgb(91.372549%,95.686275%,98.039216%);fill-opacity:1;" d="M 72 504 L 144 504 L 144 432 L 72 432 Z M 72 504 "/>
<path style=" stroke:none;fill-rule:nonzero;fill:rgb(91.372549%,95.686275%,98.039216%);fill-opacity:1;" d="M 72 432 L 144 432 L 144 360 L 72 360 Z M 72 432 "/>
<path style=" stroke:none;fill-rule:nonzero;fill:rgb(79.215686%,88.235294%,93.72549%);fill-opacity:1;" d="M 72 360 L 144 360 L 144 288 L 72 288 Z M 72 360 "/>
<path style=" stroke:none;fill-rule:nonzero;fill:rgb(85.490196%,92.156863%,96.078431%);fill-opacity:1;" d="M 72 288 L 144 288 L 144 216 L 72 216 Z M 72 288 "/>
<path style=" stroke:none;fill-rule:nonzero;fill:rgb(79.215686%,88.235294%,93.72549%);fill-opacity:1;" d="M 72 216 L 144 216 L 144 144 L 72 144 Z M 72 216 "/>
<path style=" stroke:none;fill-rule:nonzero;fill:rgb(85.490196%,92.156863%,96.078431%);fill-opacity:1;" d="M 72 144 L 144 144 L 144 72 L 72 72 Z M 72 144 "/>
<path style=" stroke:none;fill-rule:nonzero;fill:rgb(72.156863%,83.529412%,91.372549%);fill-opacity:1;" d="M 72 72 L 144 72 L 144 0 L 72 0 Z M 72 72 "/>
<path style=" stroke:none;fill-rule:nonzero;fill:rgb(95.686275%,98.039216%,99.607843%);fill-opacity:1;" d="M 144 576 L 216 576 L 216 504 L 144 504 Z M 144 576 "/>
<path style=" stroke:none;fill-rule:nonzero;fill:rgb(85.490196%,92.156863%,96.078431%);fill-opacity:1;" d="M 144 504 L 216 504 L 216 432 L 144 432 Z M 144 504 "/>
<path style=" stroke:none;fill-rule:nonzero;fill:rgb(85.490196%,92.156863%,96.078431%);fill-opacity:1;" d="M 144 432 L 216 432 L 216 360 L 144 360 Z M 144 432 "/>
<path style=" stroke:none;fill-rule:nonzero;fill:rgb(72.156863%,83.529412%,91.372549%);fill-opacity:1;" d="M 144 360 L 216 360 L 216 288 L 144 288 Z M 144 360 "/>
<path style=" stroke:none;fill-rule:nonzero;fill:rgb(85.490196%,92.156863%,96.078431%);fill-opacity:1;" d="M 144 288 L 216 288 L 216 216 L 144 216 Z M 144 288 "/>
<path style=" stroke:none;fill-rule:nonzero;fill:rgb(57.647059%,72.941176%,85.882353%);fill-opacity:1;" d="M 144 216 L 216 216 L 216 144 L 144 144 Z M 144 216 "/>
<path style=" stroke:none;fill-rule:nonzero;fill:rgb(91.372549%,95.686275%,98.039216%);fill-opacity:1;" d="M 144 144 L 216 144 L 216 72 L 144 72 Z M 144 144 "/>
<path style=" stroke:none;fill-rule:nonzero;fill:rgb(65.098039%,78.431373%,88.627451%);fill-opacity:1;" d="M 144 72 L 216 72 L 216 0 L 144 0 Z M 144 72 "/>
<path style=" stroke:none;fill-rule:nonzero;fill:rgb(85.490196%,92.156863%,96.078431%);fill-opacity:1;" d="M 216 576 L 288 576 L 288 504 L 216 504 Z M 216 576 "/>
<path style=" stroke:none;fill-rule:nonzero;fill:rgb(91.372549%,95.686275%,98.039216%);fill-opacity:1;" d="M 216 504 L 288 504 L 288 432 L 216 432 Z M 216 504 "/>
<path style=" stroke:none;fill-rule:nonzero;fill:rgb(91.372549%,95.686275%,98.039216%);fill-opacity:1;" d="M 216 432 L 288 432 L 288 360 L 216 360 Z M 216 432 "/>
<path style=" stroke:none;fill-rule:nonzero;fill:rgb(85.490196%,92.156863%,96.078431%);fill-opacity:1;" d="M 216 360 L 288 360 L 288 288 L 216 288 Z M 216 360 "/>
<path style=" stroke:none;fill-rule:nonzero;fill:rgb(91.372549%,95.686275%,98.039216%);fill-opacity:1;" d="M 216 288 L 288 288 L 288 216 L 216 216 Z M 216 288 "/>
<path style=" stroke:none;fill-rule:nonzero;fill:rgb(95.686275%,98.039216%,99.607843%);fill-opacity:1;" d="M 216 216 L 288 216 L 288 144 L 216 144 Z M 216 216 "/>
<path style=" stroke:none;fill-rule:nonzero;fill:rgb(85.490196%,92.156863%,96.078431%);fill-opacity:1;" d="M 216 144 L 288 144 L 288 72 L 216 72 Z M 216 144 "/>
<path style=" stroke:none;fill-rule:nonzero;fill:rgb(95.686275%,98.039216%,99.607843%);fill-opacity:1;" d="M 216 72 L 288 72 L 288 0 L 216 0 Z M 216 72 "/>
<path style=" stroke:none;fill-rule:nonzero;fill:rgb(95.686275%,98.039216%,99.607843%);fill-opacity:1;" d="M 288 576 L 360 576 L 360 504 L 288 504 Z M 288 576 "/>
<path style=" stroke:none;fill-rule:nonzero;fill:rgb(95.686275%,98.039216%,99.607843%);fill-opacity:1;" d="M 288 504 L 360 504 L 360 432 L 288 432 Z M 288 504 "/>
<path style=" stroke:none;fill-rule:nonzero;fill:rgb(95.686275%,98.039216%,99.607843%);fill-opacity:1;" d="M 288 432 L 360 432 L 360 360 L 288 360 Z M 288 432 "/>
<path style=" stroke:none;fill-rule:nonzero;fill:rgb(91.372549%,95.686275%,98.039216%);fill-opacity:1;" d="M 288 360 L 360 360 L 360 288 L 288 288 Z M 288 360 "/>
<path style=" stroke:none;fill-rule:nonzero;fill:rgb(95.686275%,98.039216%,99.607843%);fill-opacity:1;" d="M 288 288 L 360 288 L 360 216 L 288 216 Z M 288 288 "/>
<path style=" stroke:none;fill-rule:nonzero;fill:rgb(95.686275%,98.039216%,99.607843%);fill-opacity:1;" d="M 288 216 L 360 216 L 360 144 L 288 144 Z M 288 216 "/>
<path style=" stroke:none;fill-rule:nonzero;fill:rgb(91.372549%,95.686275%,98.039216%);fill-opacity:1;" d="M 288 144 L 360 144 L 360 72 L 288 72 Z M 288 144 "/>
<path style=" stroke:none;fill-rule:nonzero;fill:rgb(95.686275%,98.039216%,99.607843%);fill-opacity:1;" d="M 288 72 L 360 72 L 360 0 L 288 0 Z M 288 72 "/>
<path style=" stroke:none;fill-rule:nonzero;fill:rgb(85.490196%,92.156863%,96.078431%);fill-opacity:1;" d="M 360 576 L 432 576 L 432 504 L 360 504 Z M 360 576 "/>
<path style=" stroke:none;fill-rule:nonzero;fill:rgb(91.372549%,95.686275%,98.039216%);fill-opacity:1;" d="M 360 504 L 432 504 L 432 432 L 360 432 Z M 360 504 "/>
<path style=" stroke:none;fill-rule:nonzero;fill:rgb(85.490196%,92.156863%,96.078431%);fill-opacity:1;" d="M 360 432 L 432 432 L 432 360 L 360 360 Z M 360 432 "/>
<path style=" stroke:none;fill-rule:nonzero;fill:rgb(72.156863%,83.529412%,91.372549%);fill-opacity:1;" d="M 360 360 L 432 360 L 432 288 L 360 288 Z M 360 360 "/>
<path style=" stroke:none;fill-rule:nonzero;fill:rgb(91.372549%,95.686275%,98.039216%);fill-opacity:1;" d="M 360 288 L 432 288 L 432 216 L 360 216 Z M 360 288 "/>
<path style=" stroke:none;fill-rule:nonzero;fill:rgb(85.490196%,92.156863%,96.078431%);fill-opacity:1;" d="M 360 216 L 432 216 L 432 144 L 360 144 Z M 360 216 "/>
<path style=" stroke:none;fill-rule:nonzero;fill:rgb(85.490196%,92.156863%,96.078431%);fill-opacity:1;" d="M 360 144 L 432 144 L 432 72 L 360 72 Z M 360 144 "/>
<path style=" stroke:none;fill-rule:nonzero;fill:rgb(79.215686%,88.235294%,93.72549%);fill-opacity:1;" d="M 360 72 L 432 72 L 432 0 L 360 0 Z M 360 72 "/>
<path style=" stroke:none;fill-rule:nonzero;fill:rgb(85.490196%,92.156863%,96.078431%);fill-opacity:1;" d="M 432 576 L 504 576 L 504 504 L 432 504 Z M 432 576 "/>
<path style=" stroke:none;fill-rule:nonzero;fill:rgb(95.686275%,98.039216%,99.607843%);fill-opacity:1;" d="M 432 504 L 504 504 L 504 432 L 432 432 Z M 432 504 "/>
<path style=" stroke:none;fill-rule:nonzero;fill:rgb(95.686275%,98.039216%,99.607843%);fill-opacity:1;" d="M 432 432 L 504 432 L 504 360 L 432 360 Z M 432 432 "/>
<path style=" stroke:none;fill-rule:nonzero;fill:rgb(85.490196%,92.156863%,96.078431%);fill-opacity:1;" d="M 432 360 L 504 360 L 504 288 L 432 288 Z M 432 360 "/>
<path style=" stroke:none;fill-rule:nonzero;fill:rgb(95.686275%,98.039216%,99.607843%);fill-opacity:1;" d="M 432 288 L 504 288 L 504 216 L 432 216 Z M 432 288 "/>
<path style=" stroke:none;fill-rule:nonzero;fill:rgb(91.372549%,95.686275%,98.039216%);fill-opacity:1;" d="M 432 216 L 504 216 L 504 144 L 432 144 Z M 432 216 "/>
<path style=" stroke:none;fill-rule:nonzero;fill:rgb(85.490196%,92.156863%,96.078431%);fill-opacity:1;" d="M 432 144 L 504 144 L 504 72 L 432 72 Z M 432 144 "/>
<path style=" stroke:none;fill-rule:nonzero;fill:rgb(91.372549%,95.686275%,98.039216%);fill-opacity:1;" d="M 432 72 L 504 72 L 504 0 L 432 0 Z M 432 72 "/>
<path style=" stroke:none;fill-rule:nonzero;fill:rgb(85.490196%,92.156863%,96.078431%);fill-opacity:1;" d="M 504 576 L 576 576 L 576 504 L 504 504 Z M 504 576 "/>
<path style=" stroke:none;fill-rule:nonzero;fill:rgb(91.372549%,95.686275%,98.039216%);fill-opacity:1;" d="M 504 504 L 576 504 L 576 432 L 504 432 Z M 504 504 "/>
<path style=" stroke:none;fill-rule:nonzero;fill:rgb(85.490196%,92.156863%,96.078431%);fill-opacity:1;" d="M 504 432 L 576 432 L 576 360 L 504 360 Z M 504 432 "/>
<path style=" stroke:none;fill-rule:nonzero;fill:rgb(91.372549%,95.686275%,98.039216%);fill-opacity:1;" d="M 504 360 L 576 360 L 576 288 L 504 288 Z M 504 360 "/>
<path style=" stroke:none;fill-rule:nonzero;fill:rgb(91.372549%,95.686275%,98.039216%);fill-opacity:1;" d="M 504 288 L 576 288 L 576 216 L 504 216 Z M 504 288 "/>
<path style=" stroke:none;fill-rule:nonzero;fill:rgb(85.490196%,92.156863%,96.078431%);fill-opacity:1;" d="M 504 216 L 576 216 L 576 144 L 504 144 Z M 504 216 "/>
<path style=" stroke:none;fill-rule:nonzero;fill:rgb(91.372549%,95.686275%,98.039216%);fill-opacity:1;" d="M 504 144 L 576 144 L 576 72 L 504 72 Z M 504 144 "/>
<path style=" stroke:none;fill-rule:nonzero;fill:rgb(85.490196%,92.156863%,96.078431%);fill-opacity:1;" d="M 504 72 L 576 72 L 576 0 L 504 0 Z M 504 72 "/>
<path style=" stroke:none;fill-rule:nonzero;fill:rgb(15.294118%,21.960784%,44.313725%);fill-opacity:1;" d="M 576 576 L 648 576 L 648 504 L 576 504 Z M 576 576 "/>
<path style=" stroke:none;fill-rule:nonzero;fill:rgb(25.490196%,48.627451%,74.117647%);fill-opacity:1;" d="M 576 504 L 648 504 L 648 432 L 576 432 Z M 576 504 "/>
<path style=" stroke:none;fill-rule:nonzero;fill:rgb(17.647059%,28.235294%,52.54902%);fill-opacity:1;" d="M 576 432 L 648 432 L 648 360 L 576 360 Z M 576 432 "/>
<path style=" stroke:none;fill-rule:nonzero;fill:rgb(42.352941%,61.176471%,80%);fill-opacity:1;" d="M 576 360 L 648 360 L 648 288 L 576 288 Z M 576 360 "/>
<path style=" stroke:none;fill-rule:nonzero;fill:rgb(19.215686%,34.901961%,60.784314%);fill-opacity:1;" d="M 576 288 L 648 288 L 648 216 L 576 216 Z M 576 288 "/>
<path style=" stroke:none;fill-rule:nonzero;fill:rgb(42.352941%,61.176471%,80%);fill-opacity:1;" d="M 576 216 L 648 216 L 648 144 L 576 144 Z M 576 216 "/>
<path style=" stroke:none;fill-rule:nonzero;fill:rgb(19.215686%,34.901961%,60.784314%);fill-opacity:1;" d="M 576 144 L 648 144 L 648 72 L 576 72 Z M 576 144 "/>
<path style=" stroke:none;fill-rule:nonzero;fill:rgb(65.098039%,78.431373%,88.627451%);fill-opacity:1;" d="M 576 72 L 648 72 L 648 0 L 576 0 Z M 576 72 "/>
<path style=" stroke:none;fill-rule:nonzero;fill:rgb(42.352941%,61.176471%,80%);fill-opacity:1;" d="M 648 576 L 720 576 L 720 504 L 648 504 Z M 648 576 "/>
<path style=" stroke:none;fill-rule:nonzero;fill:rgb(25.490196%,48.627451%,74.117647%);fill-opacity:1;" d="M 648 504 L 720 504 L 720 432 L 648 432 Z M 648 504 "/>
<path style=" stroke:none;fill-rule:nonzero;fill:rgb(34.117647%,54.901961%,76.862745%);fill-opacity:1;" d="M 648 432 L 720 432 L 720 360 L 648 360 Z M 648 432 "/>
<path style=" stroke:none;fill-rule:nonzero;fill:rgb(49.803922%,67.058824%,82.745098%);fill-opacity:1;" d="M 648 360 L 720 360 L 720 288 L 648 288 Z M 648 360 "/>
<path style=" stroke:none;fill-rule:nonzero;fill:rgb(25.490196%,48.627451%,74.117647%);fill-opacity:1;" d="M 648 288 L 720 288 L 720 216 L 648 216 Z M 648 288 "/>
<path style=" stroke:none;fill-rule:nonzero;fill:rgb(49.803922%,67.058824%,82.745098%);fill-opacity:1;" d="M 648 216 L 720 216 L 720 144 L 648 144 Z M 648 216 "/>
<path style=" stroke:none;fill-rule:nonzero;fill:rgb(25.490196%,48.627451%,74.117647%);fill-opacity:1;" d="M 648 144 L 720 144 L 720 72 L 648 72 Z M 648 144 "/>
<path style=" stroke:none;fill-rule:nonzero;fill:rgb(49.803922%,67.058824%,82.745098%);fill-opacity:1;" d="M 648 72 L 720 72 L 720 0 L 648 0 Z M 648 72 "/>
</g>
</svg>
