<?xml version="1.0" encoding="UTF-8"?>
<svg xmlns="http://www.w3.org/2000/svg" xmlns:xlink="http://www.w3.org/1999/xlink" width="504pt" height="504pt" viewBox="0 0 504 504" version="1.1">
<g id="surface137">
<rect x="0" y="0" width="504" height="504" style="fill:rgb(100%,100%,100%);fill-opacity:1;stroke:none;"/>
<path style=" stroke:none;fill-rule:nonzero;fill:rgb(94.901961%,51.764706%,0%);fill-opacity:1;" d="M 0 504 L 50.398438 504 L 50.398438 441 L 0 441 Z M 0 504 "/>
<path style=" stroke:none;fill-rule:nonzero;fill:rgb(76.470588%,13.333333%,0%);fill-opacity:1;" d="M 0 441 L 50.398438 441 L 50.398438 378 L 0 378 Z M 0 441 "/>
<path style=" stroke:none;fill-rule:nonzero;fill:rgb(88.235294%,23.529412%,0%);fill-opacity:1;" d="M 0 378 L 50.398438 378 L 50.398438 315 L 0 315 Z M 0 378 "/>
<path style=" stroke:none;fill-rule:nonzero;fill:rgb(96.078431%,63.137255%,0%);fill-opacity:1;" d="M 0 315 L 50.398438 315 L 50.398438 252 L 0 252 Z M 0 315 "/>
<path style=" stroke:none;fill-rule:nonzero;fill:rgb(92.941176%,38.431373%,0%);fill-opacity:1;" d="M 0 252 L 50.398438 252 L 50.398438 189 L 0 189 Z M 0 252 "/>
<path style=" stroke:none;fill-rule:nonzero;fill:rgb(92.941176%,38.431373%,0%);fill-opacity:1;" d="M 0 189 L 50.398438 189 L 50.398438 126 L 0 126 Z M 0 189 "/>
<path style=" stroke:none;fill-rule:nonzero;fill:rgb(96.078431%,63.137255%,0%);fill-opacity:1;" d="M 0 126 L 50.398438 126 L 50.398438 63 L 0 63 Z M 0 126 "/>
<path style=" stroke:none;fill-rule:nonzero;fill:rgb(88.235294%,23.529412%,0%);fill-opacity:1;" d="M 0 63 L 50.398438 63 L 50.398438 0 L 0 0 Z M 0 63 "/>
<path style=" stroke:none;fill-rule:nonzero;fill:rgb(100%,95.686275%,71.764706%);fill-opacity:1;" d="M 50.398438 504 L 100.796875 504 L 100.796875 441 L 50.398438 441 Z M 50.398438 504 "/>
<path style=" stroke:none;fill-rule:nonzero;fill:rgb(100%,95.686275%,71.764706%);fill-opacity:1;" d="M 50.398438 441 L 100.796875 441 L 100.796875 378 L 50.398438 378 Z M 50.398438 441 "/>
<path style=" stroke:none;fill-rule:nonzero;fill:rgb(100%,95.686275%,71.764706%);fill-opacity:1;" d="M 50.398438 378 L 100.796875 378 L 100.796875 315 L 50.398438 315 Z M 50.398438 378 "/>
<path style=" stroke:none;fill-rule:nonzero;fill:rgb(98.431373%,89.411765%,60.392157%);fill-opacity:1;" d="M 50.398438 315 L 100.796875 315 L 100.796875 252 L 50.398438 252 Z M 50.398438 315 "/>
<path style=" stroke:none;fill-rule:nonzero;fill:rgb(100%,95.686275%,71.764706%);fill-opacity:1;" d="M 50.398438 252 L 100.796875 252 L 100.796875 189 L 50.398438 189 Z M 50.398438 252 "/>
<path style=" stroke:none;fill-rule:nonzero;fill:rgb(98.431373%,89.411765%,60.392157%);fill-opacity:1;" d="M 50.398438 189 L 100.796875 189 L 100.796875 126 L 50.398438 126 Z M 50.398438 189 "/>
<path style=" stroke:none;fill-rule:nonzero;fill:rgb(100%,95.686275%,71.764706%);fill-opacity:1;" d="M 50.398438 126 L 100.796875 126 L 100.796875 63 L 50.398438 63 Z M 50.398438 126 "/>
<path style=" stroke:none;fill-rule:nonzero;fill:rgb(97.254902%,81.568627%,45.490196%);fill-opacity:1;" d="M 50.398438 63 L 100.796875 63 L 100.796875 0 L 50.398438 0 Z M 50.398438 63 "/>
<path style=" stroke:none;fill-rule:nonzero;fill:rgb(100%,100%,78.431373%);fill-opacity:1;" d="M 100.800781 504 L 151.199219 504 L 151.199219 441 L 100.800781 441 Z M 100.800781 504 "/>
<path style=" stroke:none;fill-rule:nonzero;fill:rgb(98.431373%,89.411765%,60.392157%);fill-opacity:1;" d="M 100.800781 441 L 151.199219 441 L 151.199219 378 L 100.800781 378 Z M 100.800781 441 "/>
<path style=" stroke:none;fill-rule:nonzero;fill:rgb(100%,95.686275%,71.764706%);fill-opacity:1;" d="M 100.800781 378 L 151.199219 378 L 151.199219 315 L 100.800781 315 Z M 100.800781 378 "/>
<path style=" stroke:none;fill-rule:nonzero;fill:rgb(97.254902%,81.568627%,45.490196%);fill-opacity:1;" d="M 100.800781 315 L 151.199219 315 L 151.199219 252 L 100.800781 252 Z M 100.800781 315 "/>
<path style=" stroke:none;fill-rule:nonzero;fill:rgb(98.431373%,89.411765%,60.392157%);fill-opacity:1;" d="M 100.800781 252 L 151.199219 252 L 151.199219 189 L 100.800781 189 Z M 100.800781 252 "/>
<path style=" stroke:none;fill-rule:nonzero;fill:rgb(96.078431%,63.137255%,0%);fill-opacity:1;" d="M 100.800781 189 L 151.199219 189 L 151.199219 126 L 100.800781 126 Z M 100.800781 189 "/>
<path style=" stroke:none;fill-rule:nonzero;fill:rgb(100%,95.686275%,71.764706%);fill-opacity:1;" d="M 100.800781 126 L 151.199219 126 L 151.199219 63 L 100.800781 63 Z M 100.800781 126 "/>
<path style=" stroke:none;fill-rule:nonzero;fill:rgb(96.862745%,72.941176%,23.529412%);fill-opacity:1;" d="M 100.800781 63 L 151.199219 63 L 151.199219 0 L 100.800781 0 Z M 100.800781 63 "/>
<path style=" stroke:none;fill-rule:nonzero;fill:rgb(100%,95.686275%,71.764706%);fill-opacity:1;" d="M 151.199219 504 L 201.597656 504 L 201.597656 441 L 151.199219 441 Z M 151.199219 504 "/>
<path style=" stroke:none;fill-rule:nonzero;fill:rgb(100%,95.686275%,71.764706%);fill-opacity:1;" d="M 151.199219 441 L 201.597656 441 L 201.597656 378 L 151.199219 378 Z M 151.199219 441 "/>
<path style=" stroke:none;fill-rule:nonzero;fill:rgb(100%,100%,78.431373%);fill-opacity:1;" d="M 151.199219 378 L 201.597656 378 L 201.597656 315 L 151.199219 315 Z M 151.199219 378 "/>
<path style=" stroke:none;fill-rule:nonzero;fill:rgb(100%,95.686275%,71.764706%);fill-opacity:1;" d="M 151.199219 315 L 201.597656 315 L 201.597656 252 L 151.199219 252 Z M 151.199219 315 "/>
<path style=" stroke:none;fill-rule:nonzero;fill:rgb(100%,95.686275%,71.764706%);fill-opacity:1;" d="M 151.199219 252 L 201.597656 252 L 201.597656 189 L 151.199219 189 Z M 151.199219 252 "/>
<path style=" stroke:none;fill-rule:nonzero;fill:rgb(100%,100%,78.431373%);fill-opacity:1;" d="M 151.199219 189 L 201.597656 189 L 201.597656 126 L 151.199219 126 Z M 151.199219 189 "/>
<path style=" stroke:none;fill-rule:nonzero;fill:rgb(100%,95.686275%,71.764706%);fill-opacity:1;" d="M 151.199219 126 L 201.597656 126 L 201.597656 63 L 151.199219 63 Z M 151.199219 126 "/>
<path style=" stroke:none;fill-rule:nonzero;fill:rgb(100%,100%,78.431373%);fill-opacity:1;" d="M 151.199219 63 L 201.597656 63 L 201.597656 0 L 151.199219 0 Z M 151.199219 63 "/>
<path style=" stroke:none;fill-rule:nonzero;fill:rgb(100%,100%,78.431373%);fill-opacity:1;" d="M 201.601562 504 L 252 504 L 252 441 L 201.601562 441 Z M 201.601562 504 "/>
<path style=" stroke:none;fill-rule:nonzero;fill:rgb(100%,100%,78.431373%);fill-opacity:1;" d="M 201.601562 441 L 252 441 L 252 378 L 201.601562 378 Z M 201.601562 441 "/>
<path style=" stroke:none;fill-rule:nonzero;fill:rgb(100%,100%,78.431373%);fill-opacity:1;" d="M 201.601562 378 L 252 378 L 252 315 L 201.601562 315 Z M 201.601562 378 "/>
<path style=" stroke:none;fill-rule:nonzero;fill:rgb(100%,95.686275%,71.764706%);fill-opacity:1;" d="M 201.601562 315 L 252 315 L 252 252 L 201.601562 252 Z M 201.601562 315 "/>
<path style=" stroke:none;fill-rule:nonzero;fill:rgb(100%,100%,78.431373%);fill-opacity:1;" d="M 201.601562 252 L 252 252 L 252 189 L 201.601562 189 Z M 201.601562 252 "/>
<path style=" stroke:none;fill-rule:nonzero;fill:rgb(100%,100%,78.431373%);fill-opacity:1;" d="M 201.601562 189 L 252 189 L 252 126 L 201.601562 126 Z M 201.601562 189 "/>
<path style=" stroke:none;fill-rule:nonzero;fill:rgb(100%,100%,78.431373%);fill-opacity:1;" d="M 201.601562 126 L 252 126 L 252 63 L 201.601562 63 Z M 201.601562 126 "/>
<path style=" stroke:none;fill-rule:nonzero;fill:rgb(100%,100%,78.431373%);fill-opacity:1;" d="M 201.601562 63 L 252 63 L 252 0 L 201.601562 0 Z M 201.601562 63 "/>
<path style=" stroke:none;fill-rule:nonzero;fill:rgb(100%,95.686275%,71.764706%);fill-opacity:1;" d="M 252 504 L 302.398438 504 L 302.398438 441 L 252 441 Z M 252 504 "/>
<path style=" stroke:none;fill-rule:nonzero;fill:rgb(100%,95.686275%,71.764706%);fill-opacity:1;" d="M 252 441 L 302.398438 441 L 302.398438 378 L 252 378 Z M 252 441 "/>
<path style=" stroke:none;fill-rule:nonzero;fill:rgb(98.431373%,89.411765%,60.392157%);fill-opacity:1;" d="M 252 378 L 302.398438 378 L 302.398438 315 L 252 315 Z M 252 378 "/>
<path style=" stroke:none;fill-rule:nonzero;fill:rgb(97.254902%,81.568627%,45.490196%);fill-opacity:1;" d="M 252 315 L 302.398438 315 L 302.398438 252 L 252 252 Z M 252 315 "/>
<path style=" stroke:none;fill-rule:nonzero;fill:rgb(100%,95.686275%,71.764706%);fill-opacity:1;" d="M 252 252 L 302.398438 252 L 302.398438 189 L 252 189 Z M 252 252 "/>
<path style=" stroke:none;fill-rule:nonzero;fill:rgb(98.431373%,89.411765%,60.392157%);fill-opacity:1;" d="M 252 189 L 302.398438 189 L 302.398438 126 L 252 126 Z M 252 189 "/>
<path style=" stroke:none;fill-rule:nonzero;fill:rgb(100%,95.686275%,71.764706%);fill-opacity:1;" d="M 252 126 L 302.398438 126 L 302.398438 63 L 252 63 Z M 252 126 "/>
<path style=" stroke:none;fill-rule:nonzero;fill:rgb(98.431373%,89.411765%,60.392157%);fill-opacity:1;" d="M 252 63 L 302.398438 63 L 302.398438 0 L 252 0 Z M 252 63 "/>
<path style=" stroke:none;fill-rule:nonzero;fill:rgb(98.431373%,89.411765%,60.392157%);fill-opacity:1;" d="M 302.398438 504 L 352.796875 504 L 352.796875 441 L 302.398438 441 Z M 302.398438 504 "/>
<path style=" stroke:none;fill-rule:nonzero;fill:rgb(100%,100%,78.431373%);fill-opacity:1;" d="M 302.398438 441 L 352.796875 441 L 352.796875 378 L 302.398438 378 Z M 302.398438 441 "/>
<path style=" stroke:none;fill-rule:nonzero;fill:rgb(100%,100%,78.431373%);fill-opacity:1;" d="M 302.398438 378 L 352.796875 378 L 352.796875 315 L 302.398438 315 Z M 302.398438 378 "/>
<path style=" stroke:none;fill-rule:nonzero;fill:rgb(98.431373%,89.411765%,60.392157%);fill-opacity:1;" d="M 302.398438 315 L 352.796875 315 L 352.796875 252 L 302.398438 252 Z M 302.398438 315 "/>
<path style=" stroke:none;fill-rule:nonzero;fill:rgb(100%,100%,78.431373%);fill-opacity:1;" d="M 302.398438 252 L 352.796875 252 L 352.796875 189 L 302.398438 189 Z M 302.398438 252 "/>
<path style=" stroke:none;fill-rule:nonzero;fill:rgb(100%,100%,78.431373%);fill-opacity:1;" d="M 302.398438 189 L 352.796875 189 L 352.796875 126 L 302.398438 126 Z M 302.398438 189 "/>
<path style=" stroke:none;fill-rule:nonzero;fill:rgb(100%,95.686275%,71.764706%);fill-opacity:1;" d="M 302.398438 126 L 352.796875 126 L 352.796875 63 L 302.398438 63 Z M 302.398438 126 "/>
<path style=" stroke:none;fill-rule:nonzero;fill:rgb(100%,95.686275%,71.764706%);fill-opacity:1;" d="M 302.398438 63 L 352.796875 63 L 352.796875 0 L 302.398438 0 Z M 302.398438 63 "/>
<path style=" stroke:none;fill-rule:nonzero;fill:rgb(98.431373%,89.411765%,60.392157%);fill-opacity:1;" d="M 352.800781 504 L 403.199219 504 L 403.199219 441 L 352.800781 441 Z M 352.800781 504 "/>
<path style=" stroke:none;fill-rule:nonzero;fill:rgb(100%,100%,78.431373%);fill-opacity:1;" d="M 352.800781 441 L 403.199219 441 L 403.199219 378 L 352.800781 378 Z M 352.800781 441 "/>
<path style=" stroke:none;fill-rule:nonzero;fill:rgb(100%,95.686275%,71.764706%);fill-opacity:1;" d="M 352.800781 378 L 403.199219 378 L 403.199219 315 L 352.800781 315 Z M 352.800781 378 "/>
<path style=" stroke:none;fill-rule:nonzero;fill:rgb(100%,95.686275%,71.764706%);fill-opacity:1;" d="M 352.800781 315 L 403.199219 315 L 403.199219 252 L 352.800781 252 Z M 352.800781 315 "/>
<path style=" stroke:none;fill-rule:nonzero;fill:rgb(100%,95.686275%,71.764706%);fill-opacity:1;" d="M 352.800781 252 L 403.199219 252 L 403.199219 189 L 352.800781 189 Z M 352.800781 252 "/>
<path style=" stroke:none;fill-rule:nonzero;fill:rgb(98.431373%,89.411765%,60.392157%);fill-opacity:1;" d="M 352.800781 189 L 403.199219 189 L 403.199219 126 L 352.800781 126 Z M 352.800781 189 "/>
<path style=" stroke:none;fill-rule:nonzero;fill:rgb(100%,95.686275%,71.764706%);fill-opacity:1;" d="M 352.800781 126 L 403.199219 126 L 403.199219 63 L 352.800781 63 Z M 352.800781 126 "/>
<path style=" stroke:none;fill-rule:nonzero;fill:rgb(98.431373%,89.411765%,60.392157%);fill-opacity:1;" d="M 352.800781 63 L 403.199219 63 L 403.199219 0 L 352.800781 0 Z M 352.800781 63 "/>
<path style=" stroke:none;fill-rule:nonzero;fill:rgb(49.019608%,0%,14.509804%);fill-opacity:1;" d="M 403.199219 504 L 453.597656 504 L 453.597656 441 L 403.199219 441 Z M 403.199219 504 "/>
<path style=" stroke:none;fill-rule:nonzero;fill:rgb(88.235294%,23.529412%,0%);fill-opacity:1;" d="M 403.199219 441 L 453.597656 441 L 453.597656 378 L 403.199219 378 Z M 403.199219 441 "/>
<path style=" stroke:none;fill-rule:nonzero;fill:rgb(63.529412%,2.745098%,2.352941%);fill-opacity:1;" d="M 403.199219 378 L 453.597656 378 L 453.597656 315 L 403.199219 315 Z M 403.199219 378 "/>
<path style=" stroke:none;fill-rule:nonzero;fill:rgb(94.901961%,51.764706%,0%);fill-opacity:1;" d="M 403.199219 315 L 453.597656 315 L 453.597656 252 L 403.199219 252 Z M 403.199219 315 "/>
<path style=" stroke:none;fill-rule:nonzero;fill:rgb(76.470588%,13.333333%,0%);fill-opacity:1;" d="M 403.199219 252 L 453.597656 252 L 453.597656 189 L 403.199219 189 Z M 403.199219 252 "/>
<path style=" stroke:none;fill-rule:nonzero;fill:rgb(94.901961%,51.764706%,0%);fill-opacity:1;" d="M 403.199219 189 L 453.597656 189 L 453.597656 126 L 403.199219 126 Z M 403.199219 189 "/>
<path style=" stroke:none;fill-rule:nonzero;fill:rgb(63.529412%,2.745098%,2.352941%);fill-opacity:1;" d="M 403.199219 126 L 453.597656 126 L 453.597656 63 L 403.199219 63 Z M 403.199219 126 "/>
<path style=" stroke:none;fill-rule:nonzero;fill:rgb(96.862745%,72.941176%,23.529412%);fill-opacity:1;" d="M 403.199219 63 L 453.597656 63 L 453.597656 0 L 403.199219 0 Z M 403.199219 63 "/>
<path style=" stroke:none;fill-rule:nonzero;fill:rgb(94.901961%,51.764706%,0%);fill-opacity:1;" d="M 453.601562 504 L 504 504 L 504 441 L 453.601562 441 Z M 453.601562 504 "/>
<path style=" stroke:none;fill-rule:nonzero;fill:rgb(88.235294%,23.529412%,0%);fill-opacity:1;" d="M 453.601562 441 L 504 441 L 504 378 L 453.601562 378 Z M 453.601562 441 "/>
<path style=" stroke:none;fill-rule:nonzero;fill:rgb(92.941176%,38.431373%,0%);fill-opacity:1;" d="M 453.601562 378 L 504 378 L 504 315 L 453.601562 315 Z M 453.601562 378 "/>
<path style=" stroke:none;fill-rule:nonzero;fill:rgb(94.901961%,51.764706%,0%);fill-opacity:1;" d="M 453.601562 315 L 504 315 L 504 252 L 453.601562 252 Z M 453.601562 315 "/>
<path style=" stroke:none;fill-rule:nonzero;fill:rgb(88.235294%,23.529412%,0%);fill-opacity:1;" d="M 453.601562 252 L 504 252 L 504 189 L 453.601562 189 Z M 453.601562 252 "/>
<path style=" stroke:none;fill-rule:nonzero;fill:rgb(96.078431%,63.137255%,0%);fill-opacity:1;" d="M 453.601562 189 L 504 189 L 504 126 L 453.601562 126 Z M 453.601562 189 "/>
<path style=" stroke:none;fill-rule:nonzero;fill:rgb(88.235294%,23.529412%,0%);fill-opacity:1;" d="M 453.601562 126 L 504 126 L 504 63 L 453.601562 63 Z M 453.601562 126 "/>
<path style=" stroke:none;fill-rule:nonzero;fill:rgb(94.901961%,51.764706%,0%);fill-opacity:1;" d="M 453.601562 63 L 504 63 L 504 0 L 453.601562 0 Z M 453.601562 63 "/>
</g>
</svg>
