<?xml version="1.0" encoding="UTF-8"?>
<svg xmlns="http://www.w3.org/2000/svg" xmlns:xlink="http://www.w3.org/1999/xlink" width="504pt" height="504pt" viewBox="0 0 504 504" version="1.1">
<g id="surface147">
<rect x="0" y="0" width="504" height="504" style="fill:rgb(100%,100%,100%);fill-opacity:1;stroke:none;"/>
<path style=" stroke:none;fill-rule:nonzero;fill:rgb(94.901961%,51.764706%,0%);fill-opacity:1;" d="M 0 504 L 252 504 L 252 453.601562 L 0 453.601562 Z M 0 504 "/>
<path style=" stroke:none;fill-rule:nonzero;fill:rgb(98.431373%,89.411765%,60.392157%);fill-opacity:1;" d="M 0 453.601562 L 252 453.601562 L 252 403.203125 L 0 403.203125 Z M 0 453.601562 "/>
<path style=" stroke:none;fill-rule:nonzero;fill:rgb(96.862745%,72.941176%,23.529412%);fill-opacity:1;" d="M 0 403.199219 L 252 403.199219 L 252 352.800781 L 0 352.800781 Z M 0 403.199219 "/>
<path style=" stroke:none;fill-rule:nonzero;fill:rgb(100%,95.686275%,71.764706%);fill-opacity:1;" d="M 0 352.800781 L 252 352.800781 L 252 302.402344 L 0 302.402344 Z M 0 352.800781 "/>
<path style=" stroke:none;fill-rule:nonzero;fill:rgb(100%,95.686275%,71.764706%);fill-opacity:1;" d="M 0 302.398438 L 252 302.398438 L 252 252 L 0 252 Z M 0 302.398438 "/>
<path style=" stroke:none;fill-rule:nonzero;fill:rgb(96.862745%,72.941176%,23.529412%);fill-opacity:1;" d="M 0 252 L 252 252 L 252 201.601562 L 0 201.601562 Z M 0 252 "/>
<path style=" stroke:none;fill-rule:nonzero;fill:rgb(98.431373%,89.411765%,60.392157%);fill-opacity:1;" d="M 0 201.601562 L 252 201.601562 L 252 151.203125 L 0 151.203125 Z M 0 201.601562 "/>
<path style=" stroke:none;fill-rule:nonzero;fill:rgb(100%,95.686275%,71.764706%);fill-opacity:1;" d="M 0 151.199219 L 252 151.199219 L 252 100.800781 L 0 100.800781 Z M 0 151.199219 "/>
<path style=" stroke:none;fill-rule:nonzero;fill:rgb(92.941176%,38.431373%,0%);fill-opacity:1;" d="M 0 100.800781 L 252 100.800781 L 252 50.402344 L 0 50.402344 Z M 0 100.800781 "/>
<path style=" stroke:none;fill-rule:nonzero;fill:rgb(92.941176%,38.431373%,0%);fill-opacity:1;" d="M 0 50.398438 L 252 50.398438 L 252 0 L 0 0 Z M 0 50.398438 "/>
<path style=" stroke:none;fill-rule:nonzero;fill:rgb(76.470588%,13.333333%,0%);fill-opacity:1;" d="M 252 504 L 504 504 L 504 453.601562 L 252 453.601562 Z M 252 504 "/>
<path style=" stroke:none;fill-rule:nonzero;fill:rgb(100%,95.686275%,71.764706%);fill-opacity:1;" d="M 252 453.601562 L 504 453.601562 L 504 403.203125 L 252 403.203125 Z M 252 453.601562 "/>
<path style=" stroke:none;fill-rule:nonzero;fill:rgb(98.431373%,89.411765%,60.392157%);fill-opacity:1;" d="M 252 403.199219 L 504 403.199219 L 504 352.800781 L 252 352.800781 Z M 252 403.199219 "/>
<path style=" stroke:none;fill-rule:nonzero;fill:rgb(100%,95.686275%,71.764706%);fill-opacity:1;" d="M 252 352.800781 L 504 352.800781 L 504 302.402344 L 252 302.402344 Z M 252 352.800781 "/>
<path style=" stroke:none;fill-rule:nonzero;fill:rgb(100%,100%,78.431373%);fill-opacity:1;" d="M 252 302.398438 L 504 302.398438 L 504 252 L 252 252 Z M 252 302.398438 "/>
<path style=" stroke:none;fill-rule:nonzero;fill:rgb(100%,95.686275%,71.764706%);fill-opacity:1;" d="M 252 252 L 504 252 L 504 201.601562 L 252 201.601562 Z M 252 252 "/>
<path style=" stroke:none;fill-rule:nonzero;fill:rgb(100%,100%,78.431373%);fill-opacity:1;" d="M 252 201.601562 L 504 201.601562 L 504 151.203125 L 252 151.203125 Z M 252 201.601562 "/>
<path style=" stroke:none;fill-rule:nonzero;fill:rgb(100%,95.686275%,71.764706%);fill-opacity:1;" d="M 252 151.199219 L 504 151.199219 L 504 100.800781 L 252 100.800781 Z M 252 151.199219 "/>
<path style=" stroke:none;fill-rule:nonzero;fill:rgb(49.019608%,0%,14.509804%);fill-opacity:1;" d="M 252 100.800781 L 504 100.800781 L 504 50.402344 L 252 50.402344 Z M 252 100.800781 "/>
<path style=" stroke:none;fill-rule:nonzero;fill:rgb(63.529412%,2.745098%,2.352941%);fill-opacity:1;" d="M 252 50.398438 L 504 50.398438 L 504 0 L 252 0 Z M 252 50.398438 "/>
</g>
</svg>
