<?xml version="1.0" encoding="UTF-8"?>
<svg xmlns="http://www.w3.org/2000/svg" xmlns:xlink="http://www.w3.org/1999/xlink" width="504pt" height="504pt" viewBox="0 0 504 504" version="1.1">
<g id="surface182">
<rect x="0" y="0" width="504" height="504" style="fill:rgb(100%,100%,100%);fill-opacity:1;stroke:none;"/>
<path style=" stroke:none;fill-rule:nonzero;fill:rgb(49.019608%,0%,14.509804%);fill-opacity:1;" d="M 0 504 L 50.398438 504 L 50.398438 336 L 0 336 Z M 0 504 "/>
<path style=" stroke:none;fill-rule:nonzero;fill:rgb(49.019608%,0%,14.509804%);fill-opacity:1;" d="M 0 336 L 50.398438 336 L 50.398438 168 L 0 168 Z M 0 336 "/>
<path style=" stroke:none;fill-rule:nonzero;fill:rgb(49.019608%,0%,14.509804%);fill-opacity:1;" d="M 0 168 L 50.398438 168 L 50.398438 0 L 0 0 Z M 0 168 "/>
<path style=" stroke:none;fill-rule:nonzero;fill:rgb(98.431373%,89.411765%,60.392157%);fill-opacity:1;" d="M 50.398438 504 L 100.796875 504 L 100.796875 336 L 50.398438 336 Z M 50.398438 504 "/>
<path style=" stroke:none;fill-rule:nonzero;fill:rgb(98.431373%,89.411765%,60.392157%);fill-opacity:1;" d="M 50.398438 336 L 100.796875 336 L 100.796875 168 L 50.398438 168 Z M 50.398438 336 "/>
<path style=" stroke:none;fill-rule:nonzero;fill:rgb(98.431373%,89.411765%,60.392157%);fill-opacity:1;" d="M 50.398438 168 L 100.796875 168 L 100.796875 0 L 50.398438 0 Z M 50.398438 168 "/>
<path style=" stroke:none;fill-rule:nonzero;fill:rgb(98.431373%,89.411765%,60.392157%);fill-opacity:1;" d="M 100.800781 504 L 151.199219 504 L 151.199219 336 L 100.800781 336 Z M 100.800781 504 "/>
<path style=" stroke:none;fill-rule:nonzero;fill:rgb(97.254902%,81.568627%,45.490196%);fill-opacity:1;" d="M 100.800781 336 L 151.199219 336 L 151.199219 168 L 100.800781 168 Z M 100.800781 336 "/>
<path style=" stroke:none;fill-rule:nonzero;fill:rgb(97.254902%,81.568627%,45.490196%);fill-opacity:1;" d="M 100.800781 168 L 151.199219 168 L 151.199219 0 L 100.800781 0 Z M 100.800781 168 "/>
<path style=" stroke:none;fill-rule:nonzero;fill:rgb(100%,100%,78.431373%);fill-opacity:1;" d="M 151.199219 504 L 201.597656 504 L 201.597656 336 L 151.199219 336 Z M 151.199219 504 "/>
<path style=" stroke:none;fill-rule:nonzero;fill:rgb(100%,100%,78.431373%);fill-opacity:1;" d="M 151.199219 336 L 201.597656 336 L 201.597656 168 L 151.199219 168 Z M 151.199219 336 "/>
<path style=" stroke:none;fill-rule:nonzero;fill:rgb(100%,100%,78.431373%);fill-opacity:1;" d="M 151.199219 168 L 201.597656 168 L 201.597656 0 L 151.199219 0 Z M 151.199219 168 "/>
<path style=" stroke:none;fill-rule:nonzero;fill:rgb(100%,100%,78.431373%);fill-opacity:1;" d="M 201.601562 504 L 252 504 L 252 336 L 201.601562 336 Z M 201.601562 504 "/>
<path style=" stroke:none;fill-rule:nonzero;fill:rgb(100%,100%,78.431373%);fill-opacity:1;" d="M 201.601562 336 L 252 336 L 252 168 L 201.601562 168 Z M 201.601562 336 "/>
<path style=" stroke:none;fill-rule:nonzero;fill:rgb(100%,100%,78.431373%);fill-opacity:1;" d="M 201.601562 168 L 252 168 L 252 0 L 201.601562 0 Z M 201.601562 168 "/>
<path style=" stroke:none;fill-rule:nonzero;fill:rgb(100%,95.686275%,71.764706%);fill-opacity:1;" d="M 252 504 L 302.398438 504 L 302.398438 336 L 252 336 Z M 252 504 "/>
<path style=" stroke:none;fill-rule:nonzero;fill:rgb(98.431373%,89.411765%,60.392157%);fill-opacity:1;" d="M 252 336 L 302.398438 336 L 302.398438 168 L 252 168 Z M 252 336 "/>
<path style=" stroke:none;fill-rule:nonzero;fill:rgb(98.431373%,89.411765%,60.392157%);fill-opacity:1;" d="M 252 168 L 302.398438 168 L 302.398438 0 L 252 0 Z M 252 168 "/>
<path style=" stroke:none;fill-rule:nonzero;fill:rgb(100%,95.686275%,71.764706%);fill-opacity:1;" d="M 302.398438 504 L 352.796875 504 L 352.796875 336 L 302.398438 336 Z M 302.398438 504 "/>
<path style=" stroke:none;fill-rule:nonzero;fill:rgb(100%,95.686275%,71.764706%);fill-opacity:1;" d="M 302.398438 336 L 352.796875 336 L 352.796875 168 L 302.398438 168 Z M 302.398438 336 "/>
<path style=" stroke:none;fill-rule:nonzero;fill:rgb(100%,100%,78.431373%);fill-opacity:1;" d="M 302.398438 168 L 352.796875 168 L 352.796875 0 L 302.398438 0 Z M 302.398438 168 "/>
<path style=" stroke:none;fill-rule:nonzero;fill:rgb(96.078431%,63.137255%,0%);fill-opacity:1;" d="M 352.800781 504 L 403.199219 504 L 403.199219 336 L 352.800781 336 Z M 352.800781 504 "/>
<path style=" stroke:none;fill-rule:nonzero;fill:rgb(96.078431%,63.137255%,0%);fill-opacity:1;" d="M 352.800781 336 L 403.199219 336 L 403.199219 168 L 352.800781 168 Z M 352.800781 336 "/>
<path style=" stroke:none;fill-rule:nonzero;fill:rgb(96.862745%,72.941176%,23.529412%);fill-opacity:1;" d="M 352.800781 168 L 403.199219 168 L 403.199219 0 L 352.800781 0 Z M 352.800781 168 "/>
<path style=" stroke:none;fill-rule:nonzero;fill:rgb(96.078431%,63.137255%,0%);fill-opacity:1;" d="M 403.199219 504 L 453.597656 504 L 453.597656 336 L 403.199219 336 Z M 403.199219 504 "/>
<path style=" stroke:none;fill-rule:nonzero;fill:rgb(96.862745%,72.941176%,23.529412%);fill-opacity:1;" d="M 403.199219 336 L 453.597656 336 L 453.597656 168 L 403.199219 168 Z M 403.199219 336 "/>
<path style=" stroke:none;fill-rule:nonzero;fill:rgb(96.078431%,63.137255%,0%);fill-opacity:1;" d="M 403.199219 168 L 453.597656 168 L 453.597656 0 L 403.199219 0 Z M 403.199219 168 "/>
<path style=" stroke:none;fill-rule:nonzero;fill:rgb(96.078431%,63.137255%,0%);fill-opacity:1;" d="M 453.601562 504 L 504 504 L 504 336 L 453.601562 336 Z M 453.601562 504 "/>
<path style=" stroke:none;fill-rule:nonzero;fill:rgb(96.862745%,72.941176%,23.529412%);fill-opacity:1;" d="M 453.601562 336 L 504 336 L 504 168 L 453.601562 168 Z M 453.601562 336 "/>
<path style=" stroke:none;fill-rule:nonzero;fill:rgb(96.078431%,63.137255%,0%);fill-opacity:1;" d="M 453.601562 168 L 504 168 L 504 0 L 453.601562 0 Z M 453.601562 168 "/>
</g>
</svg>
